  0
SECTION
  2
HEADER
  9
$ACADVER
  1
AC1014
  9
$HANDSEED
  5
FFFF
  9
$MEASUREMENT
 70
     1
  0
ENDSEC
  0
SECTION
  2
TABLES
  0
TABLE
  2
VPORT
  5
8
330
0
100
AcDbSymbolTable
 70
     4
  0
VPORT
  5
2E
330
8
100
AcDbSymbolTableRecord
100
AcDbViewportTableRecord
  2
*ACTIVE
 70
     0
 10
0.0
 20
0.0
 11
1.0
 21
1.0
 12
210.0
 22
148.5
 13
0.0
 23
0.0
 14
10.0
 24
10.0
 15
10.0
 25
10.0
 16
0.0
 26
0.0
 36
1.0
 17
0.0
 27
0.0
 37
0.0
 40
341.0
 41
1.24
 42
50.0
 43
0.0
 44
0.0
 50
0.0
 51
0.0
 71
     0
 72
   100
 73
     1
 74
     3
 75
     0
 76
     0
 77
     0
 78
     0
  0
ENDTAB
  0
TABLE
  2
LTYPE
  5
5
330
0
100
AcDbSymbolTable
 70
     1
  0
LTYPE
  5
14
330
5
100
AcDbSymbolTableRecord
100
AcDbLinetypeTableRecord
  2
BYBLOCK
 70
     0
  3

 72
    65
 73
     0
 40
0.0
  0
LTYPE
  5
15
330
5
100
AcDbSymbolTableRecord
100
AcDbLinetypeTableRecord
  2
BYLAYER
 70
     0
  3

 72
    65
 73
     0
 40
0.0
  0
LTYPE
  5
16
330
5
100
AcDbSymbolTableRecord
100
AcDbLinetypeTableRecord
  2
CONTINUOUS
 70
     0
  3
Solid line
 72
    65
 73
     0
 40
0.0
  0
ENDTAB
  0
TABLE
  2
LAYER
  5
2
100
AcDbSymbolTable
 70
2
  0
LAYER
  5
50
100
AcDbSymbolTableRecord
100
AcDbLayerTableRecord
  2
0
 70
0
  6
CONTINUOUS
  0
LAYER
  5
51
100
AcDbSymbolTableRecord
100
AcDbLayerTableRecord
  2
Layer_1
 70
0
  6
CONTINUOUS
  0
ENDTAB
  0
TABLE
  2
STYLE
  5
3
330
0
100
AcDbSymbolTable
 70
     1
  0
STYLE
  5
11
330
3
100
AcDbSymbolTableRecord
100
AcDbTextStyleTableRecord
  2
STANDARD
 70
     0
 40
0.0
 41
1.0
 50
0.0
 71
     0
 42
2.5
  3
txt
  4

  0
ENDTAB
  0
TABLE
  2
VIEW
  5
6
330
0
100
AcDbSymbolTable
 70
     0
  0
ENDTAB
  0
TABLE
  2
UCS
  5
7
330
0
100
AcDbSymbolTable
 70
     0
  0
ENDTAB
  0
TABLE
  2
APPID
  5
9
330
0
100
AcDbSymbolTable
 70
     2
  0
APPID
  5
12
330
9
100
AcDbSymbolTableRecord
100
AcDbRegAppTableRecord
  2
ACAD
 70
     0
  0
ENDTAB
  0
TABLE
  2
DIMSTYLE
  5
A
330
0
100
AcDbSymbolTable
 70
     1
  0
DIMSTYLE
105
27
330
A
100
AcDbSymbolTableRecord
100
AcDbDimStyleTableRecord
  2
ISO-25
 70
     0
  3

  4

  5

  6

  7

 40
1.0
 41
2.5
 42
0.625
 43
3.75
 44
1.25
 45
0.0
 46
0.0
 47
0.0
 48
0.0
140
2.5
141
2.5
142
0.0
143
0.03937007874016
144
1.0
145
0.0
146
1.0
147
0.625
 71
     0
 72
     0
 73
     0
 74
     0
 75
     0
 76
     0
 77
     1
 78
     8
170
     0
171
     3
172
     1
173
     0
174
     0
175
     0
176
     0
177
     0
178
     0
270
     2
271
     2
272
     2
273
     2
274
     3
340
11
275
     0
280
     0
281
     0
282
     0
283
     0
284
     8
285
     0
286
     0
287
     3
288
     0
  0
ENDTAB
  0
TABLE
  2
BLOCK_RECORD
  5
1
330
0
100
AcDbSymbolTable
 70
     1
  0
BLOCK_RECORD
  5
1F
330
1
100
AcDbSymbolTableRecord
100
AcDbBlockTableRecord
  2
*MODEL_SPACE
  0
BLOCK_RECORD
  5
1B
330
1
100
AcDbSymbolTableRecord
100
AcDbBlockTableRecord
  2
*PAPER_SPACE
  0
ENDTAB
  0
ENDSEC
  0
SECTION
  2
BLOCKS
  0
BLOCK
  5
20
330
1F
100
AcDbEntity
  8
0
100
AcDbBlockBegin
  2
*MODEL_SPACE
 70
     0
 10
0.0
 20
0.0
 30
0.0
  3
*MODEL_SPACE
  1

  0
ENDBLK
  5
21
330
1F
100
AcDbEntity
  8
0
100
AcDbBlockEnd
  0
BLOCK
  5
1C
330
1B
100
AcDbEntity
 67
     1
  8
0
100
AcDbBlockBegin
  2
*PAPER_SPACE
  1

  0
ENDBLK
  5
1D
330
1B
100
AcDbEntity
 67
     1
  8
0
100
AcDbBlockEnd
  0
ENDSEC
  0
SECTION
  2
ENTITIES
  0
LWPOLYLINE
  5
100
100
AcDbEntity
  8
Layer_1
 62
7
100
AcDbPolyline
 90
129
 70
1
 10
161.343811
 20
322.485993
 30
0.0
 10
153.051411
 20
322.276361
 30
0.0
 10
144.867867
 20
321.654121
 30
0.0
 10
136.803307
 20
320.629393
 30
0.0
 10
128.867859
 20
319.212313
 30
0.0
 10
121.071635
 20
317.413001
 30
0.0
 10
113.424771
 20
315.241577
 30
0.0
 10
105.937395
 20
312.708177
 30
0.0
 10
98.619619
 20
309.822913
 30
0.0
 10
91.481571
 20
306.595913
 30
0.0
 10
84.533387
 20
303.037313
 30
0.0
 10
77.785187
 20
299.157225
 30
0.0
 10
71.247083
 20
294.965777
 30
0.0
 10
64.929219
 20
290.473097
 30
0.0
 10
58.841715
 20
285.689305
 30
0.0
 10
52.994683
 20
280.624529
 30
0.0
 10
47.398267
 20
275.288897
 30
0.0
 10
42.062579
 20
269.692529
 30
0.0
 10
36.997747
 20
263.845553
 30
0.0
 10
32.213899
 20
257.758089
 30
0.0
 10
27.721155
 20
251.440265
 30
0.0
 10
23.529645
 20
244.902209
 30
0.0
 10
19.649490
 20
238.154041
 30
0.0
 10
16.090818
 20
231.205897
 30
0.0
 10
12.863752
 20
224.067881
 30
0.0
 10
9.978418
 20
216.750137
 30
0.0
 10
7.444941
 20
209.262777
 30
0.0
 10
5.273445
 20
201.615929
 30
0.0
 10
3.474055
 20
193.819729
 30
0.0
 10
2.056898
 20
185.884289
 30
0.0
 10
1.032097
 20
177.819745
 30
0.0
 10
0.409777
 20
169.636209
 30
0.0
 10
0.200064
 20
161.343809
 30
0.0
 10
0.409710
 20
153.051353
 30
0.0
 10
1.031967
 20
144.867761
 30
0.0
 10
2.056711
 20
136.803145
 30
0.0
 10
3.473817
 20
128.867641
 30
0.0
 10
5.273159
 20
121.071377
 30
0.0
 10
7.444612
 20
113.424473
 30
0.0
 10
9.978052
 20
105.937049
 30
0.0
 10
12.863353
 20
98.619233
 30
0.0
 10
16.090389
 20
91.481153
 30
0.0
 10
19.649037
 20
84.532937
 30
0.0
 10
23.529171
 20
77.784705
 30
0.0
 10
27.720666
 20
71.246585
 30
0.0
 10
32.213395
 20
64.928697
 30
0.0
 10
36.997243
 20
58.841177
 30
0.0
 10
42.062067
 20
52.994137
 30
0.0
 10
47.397755
 20
47.397705
 30
0.0
 10
52.994179
 20
42.062009
 30
0.0
 10
58.841211
 20
36.997185
 30
0.0
 10
64.928739
 20
32.213337
 30
0.0
 10
71.246619
 20
27.720609
 30
0.0
 10
77.784739
 20
23.529113
 30
0.0
 10
84.532963
 20
19.648977
 30
0.0
 10
91.481179
 20
16.090329
 30
0.0
 10
98.619251
 20
12.863297
 30
0.0
 10
105.937059
 20
9.978001
 30
0.0
 10
113.424483
 20
7.444561
 30
0.0
 10
121.071387
 20
5.273113
 30
0.0
 10
128.867651
 20
3.473777
 30
0.0
 10
136.803155
 20
2.056681
 30
0.0
 10
144.867763
 20
1.031945
 30
0.0
 10
153.051355
 20
0.409697
 30
0.0
 10
161.343811
 20
0.200057
 30
0.0
 10
169.636211
 20
0.409777
 30
0.0
 10
177.819747
 20
1.032105
 30
0.0
 10
185.884299
 20
2.056921
 30
0.0
 10
193.819739
 20
3.474081
 30
0.0
 10
201.615939
 20
5.273473
 30
0.0
 10
209.262779
 20
7.444977
 30
0.0
 10
216.750139
 20
9.978457
 30
0.0
 10
224.067883
 20
12.863793
 30
0.0
 10
231.205899
 20
16.090857
 30
0.0
 10
238.154051
 20
19.649537
 30
0.0
 10
244.902219
 20
23.529689
 30
0.0
 10
251.440275
 20
27.721201
 30
0.0
 10
257.758099
 20
32.213945
 30
0.0
 10
263.845563
 20
36.997793
 30
0.0
 10
269.692539
 20
42.062617
 30
0.0
 10
275.288907
 20
47.398305
 30
0.0
 10
280.624539
 20
52.994721
 30
0.0
 10
285.689315
 20
58.841745
 30
0.0
 10
290.473107
 20
64.929249
 30
0.0
 10
294.965787
 20
71.247113
 30
0.0
 10
299.157235
 20
77.785201
 30
0.0
 10
303.037323
 20
84.533401
 30
0.0
 10
306.595931
 20
91.481585
 30
0.0
 10
309.822923
 20
98.619625
 30
0.0
 10
312.708187
 20
105.937401
 30
0.0
 10
315.241587
 20
113.424777
 30
0.0
 10
317.413011
 20
121.071641
 30
0.0
 10
319.212323
 20
128.867857
 30
0.0
 10
320.629403
 20
136.803313
 30
0.0
 10
321.654131
 20
144.867865
 30
0.0
 10
322.276371
 20
153.051409
 30
0.0
 10
322.486003
 20
161.343809
 30
0.0
 10
322.276283
 20
169.636153
 30
0.0
 10
321.653963
 20
177.819633
 30
0.0
 10
320.629163
 20
185.884129
 30
0.0
 10
319.212019
 20
193.819513
 30
0.0
 10
317.412643
 20
201.615673
 30
0.0
 10
315.241171
 20
209.262465
 30
0.0
 10
312.707723
 20
216.749785
 30
0.0
 10
309.822419
 20
224.067489
 30
0.0
 10
306.595395
 20
231.205465
 30
0.0
 10
303.036763
 20
238.153577
 30
0.0
 10
299.156651
 20
244.901713
 30
0.0
 10
294.965195
 20
251.439737
 30
0.0
 10
290.472499
 20
257.757537
 30
0.0
 10
285.688707
 20
263.844977
 30
0.0
 10
280.623931
 20
269.691937
 30
0.0
 10
275.288307
 20
275.288297
 30
0.0
 10
269.691947
 20
280.623921
 30
0.0
 10
263.844987
 20
285.688697
 30
0.0
 10
257.757547
 20
290.472489
 30
0.0
 10
251.439747
 20
294.965177
 30
0.0
 10
244.901715
 20
299.156641
 30
0.0
 10
238.153579
 20
303.036753
 30
0.0
 10
231.205467
 20
306.595377
 30
0.0
 10
224.067491
 20
309.822409
 30
0.0
 10
216.749787
 20
312.707713
 30
0.0
 10
209.262467
 20
315.241161
 30
0.0
 10
201.615675
 20
317.412633
 30
0.0
 10
193.819515
 20
319.212009
 30
0.0
 10
185.884131
 20
320.629153
 30
0.0
 10
177.819635
 20
321.653953
 30
0.0
 10
169.636155
 20
322.276273
 30
0.0
 10
161.343811
 20
322.485993
 30
0.0
  0
LWPOLYLINE
  5
101
100
AcDbEntity
  8
Layer_1
 62
7
100
AcDbPolyline
 90
129
 70
1
 10
218.486003
 20
263.057873
 30
0.0
 10
220.662035
 20
263.002833
 30
0.0
 10
222.809499
 20
262.839545
 30
0.0
 10
224.925747
 20
262.570641
 30
0.0
 10
227.008115
 20
262.198777
 30
0.0
 10
229.053939
 20
261.726609
 30
0.0
 10
231.060571
 20
261.156801
 30
0.0
 10
233.025355
 20
260.492001
 30
0.0
 10
234.945635
 20
259.734865
 30
0.0
 10
236.818747
 20
258.888057
 30
0.0
 10
238.642035
 20
257.954225
 30
0.0
 10
240.412851
 20
256.936033
 30
0.0
 10
242.128531
 20
255.836137
 30
0.0
 10
243.786411
 20
254.657193
 30
0.0
 10
245.383843
 20
253.401857
 30
0.0
 10
246.918171
 20
252.072785
 30
0.0
 10
248.386739
 20
250.672641
 30
0.0
 10
249.786883
 20
249.204073
 30
0.0
 10
251.115955
 20
247.669745
 30
0.0
 10
252.371291
 20
246.072313
 30
0.0
 10
253.550235
 20
244.414425
 30
0.0
 10
254.650131
 20
242.698753
 30
0.0
 10
255.668323
 20
240.927937
 30
0.0
 10
256.602155
 20
239.104649
 30
0.0
 10
257.448963
 20
237.231537
 30
0.0
 10
258.206099
 20
235.311265
 30
0.0
 10
258.870899
 20
233.346481
 30
0.0
 10
259.440715
 20
231.339841
 30
0.0
 10
259.912875
 20
229.294017
 30
0.0
 10
260.284739
 20
227.211649
 30
0.0
 10
260.553643
 20
225.095409
 30
0.0
 10
260.716931
 20
222.947937
 30
0.0
 10
260.771971
 20
220.771905
 30
0.0
 10
260.716931
 20
218.595873
 30
0.0
 10
260.553643
 20
216.448409
 30
0.0
 10
260.284739
 20
214.332161
 30
0.0
 10
259.912875
 20
212.249793
 30
0.0
 10
259.440715
 20
210.203969
 30
0.0
 10
258.870899
 20
208.197337
 30
0.0
 10
258.206099
 20
206.232553
 30
0.0
 10
257.448963
 20
204.312273
 30
0.0
 10
256.602155
 20
202.439161
 30
0.0
 10
255.668323
 20
200.615865
 30
0.0
 10
254.650131
 20
198.845057
 30
0.0
 10
253.550235
 20
197.129377
 30
0.0
 10
252.371291
 20
195.471489
 30
0.0
 10
251.115955
 20
193.874057
 30
0.0
 10
249.786883
 20
192.339729
 30
0.0
 10
248.386739
 20
190.871161
 30
0.0
 10
246.918171
 20
189.471017
 30
0.0
 10
245.383843
 20
188.141953
 30
0.0
 10
243.786411
 20
186.886617
 30
0.0
 10
242.128523
 20
185.707673
 30
0.0
 10
240.412851
 20
184.607777
 30
0.0
 10
238.642035
 20
183.589585
 30
0.0
 10
236.818747
 20
182.655753
 30
0.0
 10
234.945635
 20
181.808945
 30
0.0
 10
233.025355
 20
181.051809
 30
0.0
 10
231.060571
 20
180.387009
 30
0.0
 10
229.053939
 20
179.817193
 30
0.0
 10
227.008115
 20
179.345025
 30
0.0
 10
224.925747
 20
178.973161
 30
0.0
 10
222.809499
 20
178.704257
 30
0.0
 10
220.662035
 20
178.540969
 30
0.0
 10
218.486003
 20
178.485929
 30
0.0
 10
216.309971
 20
178.540969
 30
0.0
 10
214.162507
 20
178.704257
 30
0.0
 10
212.046259
 20
178.973161
 30
0.0
 10
209.963891
 20
179.345025
 30
0.0
 10
207.918067
 20
179.817193
 30
0.0
 10
205.911435
 20
180.387009
 30
0.0
 10
203.946651
 20
181.051809
 30
0.0
 10
202.026371
 20
181.808945
 30
0.0
 10
200.153259
 20
182.655753
 30
0.0
 10
198.329971
 20
183.589585
 30
0.0
 10
196.559155
 20
184.607777
 30
0.0
 10
194.843483
 20
185.707673
 30
0.0
 10
193.185595
 20
186.886617
 30
0.0
 10
191.588163
 20
188.141945
 30
0.0
 10
190.053835
 20
189.471017
 30
0.0
 10
188.585267
 20
190.871161
 30
0.0
 10
187.185123
 20
192.339729
 30
0.0
 10
185.856051
 20
193.874057
 30
0.0
 10
184.600715
 20
195.471489
 30
0.0
 10
183.421771
 20
197.129377
 30
0.0
 10
182.321875
 20
198.845057
 30
0.0
 10
181.303683
 20
200.615865
 30
0.0
 10
180.369851
 20
202.439161
 30
0.0
 10
179.523043
 20
204.312273
 30
0.0
 10
178.765907
 20
206.232553
 30
0.0
 10
178.101107
 20
208.197337
 30
0.0
 10
177.531291
 20
210.203969
 30
0.0
 10
177.059131
 20
212.249793
 30
0.0
 10
176.687267
 20
214.332161
 30
0.0
 10
176.418363
 20
216.448409
 30
0.0
 10
176.255075
 20
218.595873
 30
0.0
 10
176.200035
 20
220.771905
 30
0.0
 10
176.255075
 20
222.947937
 30
0.0
 10
176.418363
 20
225.095401
 30
0.0
 10
176.687267
 20
227.211649
 30
0.0
 10
177.059131
 20
229.294017
 30
0.0
 10
177.531299
 20
231.339841
 30
0.0
 10
178.101107
 20
233.346473
 30
0.0
 10
178.765907
 20
235.311257
 30
0.0
 10
179.523043
 20
237.231537
 30
0.0
 10
180.369851
 20
239.104649
 30
0.0
 10
181.303683
 20
240.927937
 30
0.0
 10
182.321875
 20
242.698753
 30
0.0
 10
183.421771
 20
244.414433
 30
0.0
 10
184.600715
 20
246.072313
 30
0.0
 10
185.856051
 20
247.669745
 30
0.0
 10
187.185123
 20
249.204073
 30
0.0
 10
188.585267
 20
250.672641
 30
0.0
 10
190.053835
 20
252.072785
 30
0.0
 10
191.588163
 20
253.401857
 30
0.0
 10
193.185595
 20
254.657193
 30
0.0
 10
194.843483
 20
255.836137
 30
0.0
 10
196.559155
 20
256.936033
 30
0.0
 10
198.329971
 20
257.954225
 30
0.0
 10
200.153259
 20
258.888057
 30
0.0
 10
202.026371
 20
259.734865
 30
0.0
 10
203.946643
 20
260.492001
 30
0.0
 10
205.911427
 20
261.156801
 30
0.0
 10
207.918067
 20
261.726617
 30
0.0
 10
209.963891
 20
262.198777
 30
0.0
 10
212.046259
 20
262.570641
 30
0.0
 10
214.162499
 20
262.839545
 30
0.0
 10
216.309971
 20
263.002833
 30
0.0
 10
218.486003
 20
263.057873
 30
0.0
  0
LWPOLYLINE
  5
102
100
AcDbEntity
  8
Layer_1
 62
7
100
AcDbPolyline
 90
129
 70
1
 10
103.057875
 20
259.629745
 30
0.0
 10
105.233907
 20
259.574705
 30
0.0
 10
107.381371
 20
259.411417
 30
0.0
 10
109.497619
 20
259.142513
 30
0.0
 10
111.579987
 20
258.770649
 30
0.0
 10
113.625811
 20
258.298481
 30
0.0
 10
115.632443
 20
257.728673
 30
0.0
 10
117.597227
 20
257.063873
 30
0.0
 10
119.517507
 20
256.306737
 30
0.0
 10
121.390619
 20
255.459929
 30
0.0
 10
123.213907
 20
254.526097
 30
0.0
 10
124.984723
 20
253.507905
 30
0.0
 10
126.700403
 20
252.408009
 30
0.0
 10
128.358283
 20
251.229065
 30
0.0
 10
129.955715
 20
249.973729
 30
0.0
 10
131.490043
 20
248.644657
 30
0.0
 10
132.958611
 20
247.244513
 30
0.0
 10
134.358755
 20
245.775945
 30
0.0
 10
135.687827
 20
244.241617
 30
0.0
 10
136.943163
 20
242.644185
 30
0.0
 10
138.122107
 20
240.986297
 30
0.0
 10
139.222003
 20
239.270625
 30
0.0
 10
140.240195
 20
237.499809
 30
0.0
 10
141.174027
 20
235.676521
 30
0.0
 10
142.020835
 20
233.803409
 30
0.0
 10
142.777971
 20
231.883137
 30
0.0
 10
143.442771
 20
229.918353
 30
0.0
 10
144.012587
 20
227.911713
 30
0.0
 10
144.484747
 20
225.865889
 30
0.0
 10
144.856611
 20
223.783521
 30
0.0
 10
145.125515
 20
221.667281
 30
0.0
 10
145.288803
 20
219.519809
 30
0.0
 10
145.343843
 20
217.343777
 30
0.0
 10
145.288803
 20
215.167745
 30
0.0
 10
145.125515
 20
213.020281
 30
0.0
 10
144.856611
 20
210.904033
 30
0.0
 10
144.484747
 20
208.821665
 30
0.0
 10
144.012579
 20
206.775841
 30
0.0
 10
143.442771
 20
204.769209
 30
0.0
 10
142.777971
 20
202.804425
 30
0.0
 10
142.020835
 20
200.884145
 30
0.0
 10
141.174027
 20
199.011033
 30
0.0
 10
140.240195
 20
197.187745
 30
0.0
 10
139.222003
 20
195.416929
 30
0.0
 10
138.122107
 20
193.701249
 30
0.0
 10
136.943163
 20
192.043369
 30
0.0
 10
135.687827
 20
190.445937
 30
0.0
 10
134.358755
 20
188.911609
 30
0.0
 10
132.958611
 20
187.443041
 30
0.0
 10
131.490043
 20
186.042897
 30
0.0
 10
129.955715
 20
184.713825
 30
0.0
 10
128.358283
 20
183.458489
 30
0.0
 10
126.700395
 20
182.279545
 30
0.0
 10
124.984723
 20
181.179649
 30
0.0
 10
123.213907
 20
180.161457
 30
0.0
 10
121.390619
 20
179.227625
 30
0.0
 10
119.517507
 20
178.380817
 30
0.0
 10
117.597235
 20
177.623681
 30
0.0
 10
115.632451
 20
176.958881
 30
0.0
 10
113.625811
 20
176.389065
 30
0.0
 10
111.579987
 20
175.916905
 30
0.0
 10
109.497619
 20
175.545041
 30
0.0
 10
107.381379
 20
175.276137
 30
0.0
 10
105.233907
 20
175.112849
 30
0.0
 10
103.057875
 20
175.057809
 30
0.0
 10
100.881843
 20
175.112849
 30
0.0
 10
98.734379
 20
175.276137
 30
0.0
 10
96.618131
 20
175.545041
 30
0.0
 10
94.535763
 20
175.916905
 30
0.0
 10
92.489939
 20
176.389073
 30
0.0
 10
90.483307
 20
176.958881
 30
0.0
 10
88.518523
 20
177.623681
 30
0.0
 10
86.598243
 20
178.380817
 30
0.0
 10
84.725131
 20
179.227625
 30
0.0
 10
82.901843
 20
180.161457
 30
0.0
 10
81.131027
 20
181.179649
 30
0.0
 10
79.415347
 20
182.279545
 30
0.0
 10
77.757467
 20
183.458489
 30
0.0
 10
76.160035
 20
184.713825
 30
0.0
 10
74.625707
 20
186.042897
 30
0.0
 10
73.157139
 20
187.443041
 30
0.0
 10
71.756995
 20
188.911609
 30
0.0
 10
70.427923
 20
190.445937
 30
0.0
 10
69.172587
 20
192.043369
 30
0.0
 10
67.993643
 20
193.701257
 30
0.0
 10
66.893747
 20
195.416929
 30
0.0
 10
65.875555
 20
197.187745
 30
0.0
 10
64.941723
 20
199.011033
 30
0.0
 10
64.094915
 20
200.884145
 30
0.0
 10
63.337779
 20
202.804417
 30
0.0
 10
62.672979
 20
204.769201
 30
0.0
 10
62.103163
 20
206.775841
 30
0.0
 10
61.631003
 20
208.821665
 30
0.0
 10
61.259139
 20
210.904033
 30
0.0
 10
60.990235
 20
213.020273
 30
0.0
 10
60.826947
 20
215.167745
 30
0.0
 10
60.771907
 20
217.343777
 30
0.0
 10
60.826947
 20
219.519809
 30
0.0
 10
60.990235
 20
221.667273
 30
0.0
 10
61.259139
 20
223.783521
 30
0.0
 10
61.631003
 20
225.865889
 30
0.0
 10
62.103171
 20
227.911713
 30
0.0
 10
62.672979
 20
229.918345
 30
0.0
 10
63.337779
 20
231.883129
 30
0.0
 10
64.094915
 20
233.803409
 30
0.0
 10
64.941723
 20
235.676521
 30
0.0
 10
65.875555
 20
237.499809
 30
0.0
 10
66.893747
 20
239.270625
 30
0.0
 10
67.993643
 20
240.986305
 30
0.0
 10
69.172587
 20
242.644185
 30
0.0
 10
70.427923
 20
244.241617
 30
0.0
 10
71.756995
 20
245.775945
 30
0.0
 10
73.157139
 20
247.244513
 30
0.0
 10
74.625707
 20
248.644657
 30
0.0
 10
76.160035
 20
249.973729
 30
0.0
 10
77.757467
 20
251.229065
 30
0.0
 10
79.415355
 20
252.408009
 30
0.0
 10
81.131027
 20
253.507905
 30
0.0
 10
82.901843
 20
254.526097
 30
0.0
 10
84.725131
 20
255.459929
 30
0.0
 10
86.598243
 20
256.306737
 30
0.0
 10
88.518515
 20
257.063873
 30
0.0
 10
90.483299
 20
257.728673
 30
0.0
 10
92.489939
 20
258.298489
 30
0.0
 10
94.535763
 20
258.770649
 30
0.0
 10
96.618131
 20
259.142513
 30
0.0
 10
98.734371
 20
259.411417
 30
0.0
 10
100.881843
 20
259.574705
 30
0.0
 10
103.057875
 20
259.629745
 30
0.0
  0
LWPOLYLINE
  5
103
100
AcDbEntity
  8
Layer_1
 62
7
100
AcDbPolyline
 90
193
 70
1
 10
292.664123
 20
141.940681
 30
0.0
 10
292.802811
 20
141.493945
 30
0.0
 10
292.937203
 20
141.046793
 30
0.0
 10
293.067283
 20
140.599233
 30
0.0
 10
293.193059
 20
140.151289
 30
0.0
 10
293.314531
 20
139.702961
 30
0.0
 10
293.431691
 20
139.254273
 30
0.0
 10
293.544539
 20
138.805217
 30
0.0
 10
293.653075
 20
138.355825
 30
0.0
 10
293.757299
 20
137.906089
 30
0.0
 10
293.857203
 20
137.456033
 30
0.0
 10
293.952787
 20
137.005665
 30
0.0
 10
294.044051
 20
136.554993
 30
0.0
 10
294.131003
 20
136.104033
 30
0.0
 10
294.213619
 20
135.652793
 30
0.0
 10
294.291939
 20
135.201289
 30
0.0
 10
294.365939
 20
134.749521
 30
0.0
 10
294.435539
 20
134.297505
 30
0.0
 10
294.500819
 20
133.845257
 30
0.0
 10
294.561779
 20
133.392785
 30
0.0
 10
294.618419
 20
132.940105
 30
0.0
 10
294.670739
 20
132.487217
 30
0.0
 10
294.718739
 20
132.034145
 30
0.0
 10
294.762339
 20
131.580889
 30
0.0
 10
294.801619
 20
131.127465
 30
0.0
 10
294.836579
 20
130.673881
 30
0.0
 10
294.867219
 20
130.220161
 30
0.0
 10
294.893459
 20
129.766297
 30
0.0
 10
294.915379
 20
129.312313
 30
0.0
 10
294.932979
 20
128.858217
 30
0.0
 10
294.946179
 20
128.404025
 30
0.0
 10
294.955059
 20
127.949737
 30
0.0
 10
294.959859
 20
127.495369
 30
0.0
 10
294.787427
 20
123.418281
 30
0.0
 10
294.275795
 20
119.394713
 30
0.0
 10
293.433299
 20
115.429657
 30
0.0
 10
292.268251
 20
111.528073
 30
0.0
 10
290.788987
 20
107.694945
 30
0.0
 10
289.003819
 20
103.935257
 30
0.0
 10
286.921075
 20
100.253985
 30
0.0
 10
284.549083
 20
96.656105
 30
0.0
 10
281.896155
 20
93.146593
 30
0.0
 10
278.970627
 20
89.730425
 30
0.0
 10
275.780811
 20
86.412585
 30
0.0
 10
272.335043
 20
83.198049
 30
0.0
 10
268.641635
 20
80.091793
 30
0.0
 10
264.708915
 20
77.098801
 30
0.0
 10
260.545211
 20
74.224049
 30
0.0
 10
256.158835
 20
71.472505
 30
0.0
 10
251.558123
 20
68.849161
 30
0.0
 10
246.751387
 20
66.358985
 30
0.0
 10
241.746963
 20
64.006953
 30
0.0
 10
236.553171
 20
61.798057
 30
0.0
 10
231.178323
 20
59.737265
 30
0.0
 10
225.630755
 20
57.829553
 30
0.0
 10
219.918787
 20
56.079913
 30
0.0
 10
214.050739
 20
54.493305
 30
0.0
 10
208.034939
 20
53.074721
 30
0.0
 10
201.879707
 20
51.829129
 30
0.0
 10
195.593371
 20
50.761505
 30
0.0
 10
189.184259
 20
49.876841
 30
0.0
 10
182.660675
 20
49.180105
 30
0.0
 10
176.030963
 20
48.676273
 30
0.0
 10
169.303435
 20
48.370329
 30
0.0
 10
162.486419
 20
48.267249
 30
0.0
 10
155.669403
 20
48.370353
 30
0.0
 10
148.941875
 20
48.676313
 30
0.0
 10
142.312163
 20
49.180161
 30
0.0
 10
135.788579
 20
49.876913
 30
0.0
 10
129.379459
 20
50.761593
 30
0.0
 10
123.093123
 20
51.829217
 30
0.0
 10
116.937899
 20
53.074817
 30
0.0
 10
110.922099
 20
54.493409
 30
0.0
 10
105.054051
 20
56.080017
 30
0.0
 10
99.342083
 20
57.829665
 30
0.0
 10
93.794515
 20
59.737377
 30
0.0
 10
88.419667
 20
61.798161
 30
0.0
 10
83.225875
 20
64.007065
 30
0.0
 10
78.221451
 20
66.359081
 30
0.0
 10
73.414715
 20
68.849257
 30
0.0
 10
68.814003
 20
71.472601
 30
0.0
 10
64.427627
 20
74.224137
 30
0.0
 10
60.263923
 20
77.098889
 30
0.0
 10
56.331203
 20
80.091873
 30
0.0
 10
52.637795
 20
83.198121
 30
0.0
 10
49.192027
 20
86.412649
 30
0.0
 10
46.002211
 20
89.730473
 30
0.0
 10
43.076683
 20
93.146633
 30
0.0
 10
40.423755
 20
96.656137
 30
0.0
 10
38.051755
 20
100.254017
 30
0.0
 10
35.969019
 20
103.935281
 30
0.0
 10
34.183851
 20
107.694961
 30
0.0
 10
32.704579
 20
111.528081
 30
0.0
 10
31.539535
 20
115.429665
 30
0.0
 10
30.697038
 20
119.394721
 30
0.0
 10
30.185410
 20
123.418281
 30
0.0
 10
30.012976
 20
127.495369
 30
0.0
 10
30.014976
 20
127.758505
 30
0.0
 10
30.018416
 20
128.021625
 30
0.0
 10
30.023296
 20
128.284729
 30
0.0
 10
30.029696
 20
128.547817
 30
0.0
 10
30.037536
 20
128.810873
 30
0.0
 10
30.046832
 20
129.073913
 30
0.0
 10
30.057592
 20
129.336921
 30
0.0
 10
30.069808
 20
129.599897
 30
0.0
 10
30.083480
 20
129.862849
 30
0.0
 10
30.098616
 20
130.125761
 30
0.0
 10
30.115216
 20
130.388641
 30
0.0
 10
30.133272
 20
130.651481
 30
0.0
 10
30.152784
 20
130.914273
 30
0.0
 10
30.173760
 20
131.177033
 30
0.0
 10
30.196192
 20
131.439745
 30
0.0
 10
30.220080
 20
131.702409
 30
0.0
 10
30.245424
 20
131.965025
 30
0.0
 10
30.272232
 20
132.227593
 30
0.0
 10
30.300496
 20
132.490105
 30
0.0
 10
30.330216
 20
132.752561
 30
0.0
 10
30.361392
 20
133.014961
 30
0.0
 10
30.394024
 20
133.277297
 30
0.0
 10
30.428112
 20
133.539577
 30
0.0
 10
30.463656
 20
133.801793
 30
0.0
 10
30.500664
 20
134.063945
 30
0.0
 10
30.539128
 20
134.326017
 30
0.0
 10
30.579048
 20
134.588033
 30
0.0
 10
30.620424
 20
134.849961
 30
0.0
 10
30.663248
 20
135.111825
 30
0.0
 10
30.707528
 20
135.373609
 30
0.0
 10
30.753264
 20
135.635313
 30
0.0
 10
30.800456
 20
135.896937
 30
0.0
 10
32.679467
 20
132.846697
 30
0.0
 10
34.746603
 20
129.861753
 30
0.0
 10
36.997003
 20
126.944161
 30
0.0
 10
39.425819
 20
124.095993
 30
0.0
 10
42.028227
 20
121.319305
 30
0.0
 10
44.799355
 20
118.616153
 30
0.0
 10
47.734379
 20
115.988593
 30
0.0
 10
50.828451
 20
113.438689
 30
0.0
 10
54.076715
 20
110.968497
 30
0.0
 10
57.474331
 20
108.580089
 30
0.0
 10
61.016459
 20
106.275505
 30
0.0
 10
64.698243
 20
104.056817
 30
0.0
 10
68.514851
 20
101.926081
 30
0.0
 10
72.461435
 20
99.885361
 30
0.0
 10
76.533139
 20
97.936713
 30
0.0
 10
80.725139
 20
96.082193
 30
0.0
 10
85.032571
 20
94.323865
 30
0.0
 10
89.450595
 20
92.663785
 30
0.0
 10
93.974363
 20
91.104017
 30
0.0
 10
98.599043
 20
89.646617
 30
0.0
 10
103.319771
 20
88.293649
 30
0.0
 10
108.131715
 20
87.047161
 30
0.0
 10
113.030035
 20
85.909225
 30
0.0
 10
118.009875
 20
84.881897
 30
0.0
 10
123.066387
 20
83.967233
 30
0.0
 10
128.194739
 20
83.167297
 30
0.0
 10
133.390075
 20
82.484145
 30
0.0
 10
138.647555
 20
81.919833
 30
0.0
 10
143.962339
 20
81.476433
 30
0.0
 10
149.329571
 20
81.155993
 30
0.0
 10
154.744411
 20
80.960577
 30
0.0
 10
160.202011
 20
80.892257
 30
0.0
 10
166.022971
 20
80.969617
 30
0.0
 10
171.791923
 20
81.191097
 30
0.0
 10
177.503219
 20
81.554089
 30
0.0
 10
183.151219
 20
82.055993
 30
0.0
 10
188.730259
 20
82.694201
 30
0.0
 10
194.234715
 20
83.466129
 30
0.0
 10
199.658915
 20
84.369153
 30
0.0
 10
204.997227
 20
85.400689
 30
0.0
 10
210.244003
 20
86.558121
 30
0.0
 10
215.393587
 20
87.838857
 30
0.0
 10
220.440331
 20
89.240281
 30
0.0
 10
225.378595
 20
90.759793
 30
0.0
 10
230.202723
 20
92.394801
 30
0.0
 10
234.907075
 20
94.142689
 30
0.0
 10
239.486003
 20
96.000865
 30
0.0
 10
243.933843
 20
97.966713
 30
0.0
 10
248.244971
 20
100.037641
 30
0.0
 10
252.413723
 20
102.211041
 30
0.0
 10
256.434459
 20
104.484313
 30
0.0
 10
260.301531
 20
106.854849
 30
0.0
 10
264.009283
 20
109.320049
 30
0.0
 10
267.552075
 20
111.877313
 30
0.0
 10
270.924251
 20
114.524041
 30
0.0
 10
274.120171
 20
117.257617
 30
0.0
 10
277.134187
 20
120.075449
 30
0.0
 10
279.960651
 20
122.974929
 30
0.0
 10
282.593915
 20
125.953457
 30
0.0
 10
285.028323
 20
129.008425
 30
0.0
 10
287.258235
 20
132.137233
 30
0.0
 10
289.278011
 20
135.337281
 30
0.0
 10
291.081979
 20
138.605969
 30
0.0
 10
292.664123
 20
141.940681
 30
0.0
  0
ENDSEC
  0
SECTION
  2
OBJECTS
  0
DICTIONARY
  5
C
330
0
100
AcDbDictionary
  3
ACAD_GROUP
350
D
  3
ACAD_MLINESTYLE
350
17
  0
DICTIONARY
  5
D
330
C
100
AcDbDictionary
  0
DICTIONARY
  5
1A
330
C
100
AcDbDictionary
  0
DICTIONARY
  5
17
330
C
100
AcDbDictionary
  3
STANDARD
350
18
  0
DICTIONARY
  5
19
330
C
100
AcDbDictionary
  0
ENDSEC
  0
EOF
